<svg width="153" height="39" viewBox="0 0 153 39" fill="none" xmlns="http://www.w3.org/2000/svg">
<path d="M16.35 9.15C16.35 3.6 13.65 0.599999 8.6 0.599999C3.55 0.599999 0.45 3.6 0.45 9.15V13.3C0.45 16.7 1.6 18.45 3.8 20.45L7.5 23.7C8.65 24.7 9.1 25.1 9.1 26.65V31.2C9.1 32.1 8.9 32.7 8.3 32.7C7.75 32.7 7.55 32.1 7.55 31.2V24.75H0.45V29.85C0.45 35.5 3.35 38.4 8.4 38.4C13.4 38.4 16.4 35.5 16.4 29.85V26.15C16.4 22.3 15.45 20.75 12.9 18.45L9.45 15.35C8.2 14.2 7.75 13.65 7.75 12.05V7.8C7.75 6.9 7.9 6.3 8.5 6.3C9.1 6.3 9.3 6.9 9.3 7.8V14.1H16.35V9.15ZM24.6457 38V30.5H17.4457V38H24.6457Z" fill="#F6244A" fill-opacity="0.9"/>
<path d="M42.4441 8C42.4441 3.5 39.7941 1 35.5941 1H25.8941V38H35.5941C39.7941 38 42.4441 35.5 42.4441 31.05V8ZM33.3941 32.5V6.5H34.0941C34.6941 6.5 34.9441 7 34.9441 8.25V30.75C34.9441 32 34.6941 32.5 34.0941 32.5H33.3941ZM43.6676 38H56.6676V32.05H51.1176V22.3H56.0676V16.3H51.1176V6.95H56.6676V1H43.6676V38ZM70.5813 38L75.2313 1H67.3813L66.5813 18.2L66.3313 23.75H66.2313L65.9813 18.2L65.1313 1H57.1313L61.7813 38H70.5813ZM75.9918 38H83.4918V1H75.9918V38ZM88.5309 1L84.2309 38H91.6809L92.0309 31.1H93.9309L94.3309 38H101.981L97.6309 1H88.5309ZM92.6309 19.8L92.9309 12H93.0809L93.3309 19.8L93.6309 25.15H92.3309L92.6309 19.8ZM110.1 1H102.75V38H109.6V21.7H109.7L112.5 38H119.2V1H112.35V15.6H112.25L110.1 1ZM135.723 6.95V1H120.223V6.95H124.273V38H131.723V6.95H135.723ZM152.043 9.15C152.043 3.6 149.343 0.599999 144.293 0.599999C139.243 0.599999 136.143 3.6 136.143 9.15V13.3C136.143 16.7 137.293 18.45 139.493 20.45L143.193 23.7C144.343 24.7 144.793 25.1 144.793 26.65V31.2C144.793 32.1 144.593 32.7 143.993 32.7C143.443 32.7 143.243 32.1 143.243 31.2V24.75H136.143V29.85C136.143 35.5 139.043 38.4 144.093 38.4C149.093 38.4 152.093 35.5 152.093 29.85V26.15C152.093 22.3 151.143 20.75 148.593 18.45L145.143 15.35C143.893 14.2 143.443 13.65 143.443 12.05V7.8C143.443 6.9 143.593 6.3 144.193 6.3C144.793 6.3 144.993 6.9 144.993 7.8V14.1H152.043V9.15Z" fill="white" fill-opacity="0.9"/>
</svg>
