<svg width="28" height="28" viewBox="0 0 28 28" fill="none" xmlns="http://www.w3.org/2000/svg">
<rect width="28" height="28" rx="5" fill="#DE2144"/>
<path fill-rule="evenodd" clip-rule="evenodd" d="M21.8625 7C22.3594 7 22.836 7.21191 23.1873 7.58911C23.5387 7.96632 23.7361 8.47792 23.7361 9.01136V19.7386C23.7361 20.2721 23.5387 20.7837 23.1873 21.1609C22.836 21.5381 22.3594 21.75 21.8625 21.75H6.87361C6.3767 21.75 5.90014 21.5381 5.54877 21.1609C5.1974 20.7837 5 20.2721 5 19.7386V9.01136C5 8.47792 5.1974 7.96632 5.54877 7.58911C5.90014 7.21191 6.3767 7 6.87361 7H21.8625ZM17.4907 12.3636H14.9926V11.0227H17.4907V12.3636ZM9.9963 13.7045V12.3636H11.2454V13.7045H12.4944V15.0455H11.2454V16.3864H9.9963V15.0455H8.74722V13.7045H9.9963ZM19.9889 17.7273H17.4907V16.3864H19.9889V17.7273Z" fill="#E7E6E6"/>
</svg>
