<svg width="27" height="27" viewBox="0 0 27 27" fill="none" xmlns="http://www.w3.org/2000/svg">
<rect width="27" height="27" rx="3" fill="#DE2144"/>
<path d="M22.9703 7H17.9467C16.8686 7 15.8147 7.29601 14.9079 7.85443L13.8365 8.51153L12.765 7.85443C11.8591 7.29612 10.804 6.99945 9.72622 7H4.7026C4.31398 7 4 7.30021 4 7.67179V19.5961C4 19.9677 4.31398 20.2679 4.7026 20.2679H9.72622C10.8043 20.2679 11.8582 20.5639 12.765 21.1223L13.7399 21.7227C13.7684 21.7395 13.8013 21.75 13.8343 21.75C13.8672 21.75 13.9001 21.7416 13.9287 21.7227L14.9035 21.1223C15.8125 20.5639 16.8686 20.2679 17.9467 20.2679H22.9703C23.3589 20.2679 23.6729 19.9677 23.6729 19.5961V7.67179C23.6729 7.30021 23.3589 7 22.9703 7ZM11.4652 15.2399C11.4652 15.326 11.3949 15.3974 11.3093 15.3974H7.22978C7.14415 15.3974 7.07389 15.326 7.07389 15.2399V14.2952C7.07389 14.2092 7.14415 14.1378 7.22978 14.1378H11.3071C11.3927 14.1378 11.463 14.2092 11.463 14.2952V15.2399H11.4652ZM11.4652 12.3008C11.4652 12.3869 11.3949 12.4583 11.3093 12.4583H7.22978C7.14415 12.4583 7.07389 12.3869 7.07389 12.3008V11.3561C7.07389 11.2701 7.14415 11.1987 7.22978 11.1987H11.3071C11.3927 11.1987 11.463 11.2701 11.463 11.3561V12.3008H11.4652ZM20.599 15.2399C20.599 15.326 20.5288 15.3974 20.4431 15.3974H16.3636C16.278 15.3974 16.2077 15.326 16.2077 15.2399V14.2952C16.2077 14.2092 16.278 14.1378 16.3636 14.1378H20.4409C20.5266 14.1378 20.5968 14.2092 20.5968 14.2952V15.2399H20.599ZM20.599 12.3008C20.599 12.3869 20.5288 12.4583 20.4431 12.4583H16.3636C16.278 12.4583 16.2077 12.3869 16.2077 12.3008V11.3561C16.2077 11.2701 16.278 11.1987 16.3636 11.1987H20.4409C20.5266 11.1987 20.5968 11.2701 20.5968 11.3561V12.3008H20.599Z" fill="#E7E6E6"/>
</svg>
